<svg width="22" height="16" viewBox="0 0 22 16" fill="none" xmlns="http://www.w3.org/2000/svg">
<path d="M10.9491 10.5399C7.49909 10.5399 4.58813 11.1037 4.58813 13.2794C4.58813 15.4561 7.51789 16 10.9491 16C14.3991 16 17.31 15.4363 17.31 13.2605C17.31 11.0839 14.3803 10.5399 10.9491 10.5399Z" fill="#333333"/>
<path d="M10.949 8.46703C13.2851 8.46703 15.1583 6.58307 15.1583 4.23351C15.1583 1.88306 13.2851 0 10.949 0C8.61293 0 6.73975 1.88306 6.73975 4.23351C6.73975 6.58307 8.61293 8.46703 10.949 8.46703Z" fill="#333333"/>
<path opacity="0.4" d="M20.0879 5.21926C20.6923 2.84179 18.9203 0.706573 16.6639 0.706573C16.4186 0.706573 16.184 0.73359 15.9548 0.779519C15.9243 0.786723 15.8903 0.802032 15.8724 0.829049C15.8518 0.86327 15.867 0.909199 15.8894 0.938917C16.5672 1.89531 16.9567 3.05973 16.9567 4.3097C16.9567 5.50744 16.5995 6.62413 15.9727 7.5508C15.9082 7.64626 15.9655 7.77504 16.0792 7.79485C16.2368 7.82277 16.398 7.83718 16.5627 7.84168C18.2058 7.88491 19.6805 6.82135 20.0879 5.21926Z" fill="#3B3B3B"/>
<path opacity="0.4" d="M21.8093 10.8169C21.5084 10.1721 20.7823 9.72997 19.6782 9.51294C19.1571 9.38506 17.7468 9.20495 16.4351 9.22926C16.4154 9.23196 16.4046 9.24547 16.4028 9.25448C16.4002 9.26709 16.4055 9.2887 16.4315 9.30221C17.0377 9.60389 19.381 10.916 19.0864 13.6834C19.0738 13.8032 19.1696 13.9068 19.2887 13.8887C19.8654 13.8059 21.349 13.4853 21.8093 12.4866C22.0636 11.9588 22.0636 11.3456 21.8093 10.8169Z" fill="#333333"/>
<path opacity="0.4" d="M6.04483 0.779793C5.8165 0.732964 5.58101 0.706848 5.33567 0.706848C3.07926 0.706848 1.30726 2.84207 1.91255 5.21953C2.31906 6.82162 3.79379 7.88518 5.43685 7.84195C5.60161 7.83745 5.76368 7.82214 5.92037 7.79513C6.03409 7.77531 6.09139 7.64653 6.02692 7.55107C5.40014 6.6235 5.04288 5.50771 5.04288 4.30997C5.04288 3.0591 5.43327 1.89468 6.11109 0.939192C6.13258 0.909473 6.1487 0.863545 6.12721 0.829324C6.1093 0.801407 6.07617 0.786998 6.04483 0.779793Z" fill="#3B3B3B"/>
<path opacity="0.4" d="M2.32156 9.51267C1.21752 9.7297 0.492248 10.1719 0.191392 10.8167C-0.0637974 11.3453 -0.0637974 11.9586 0.191392 12.4872C0.651629 13.485 2.13531 13.8065 2.71195 13.8885C2.83104 13.9065 2.92595 13.8038 2.91342 13.6831C2.61883 10.9166 4.9621 9.60453 5.56918 9.30284C5.59425 9.28843 5.59962 9.26772 5.59694 9.25421C5.59515 9.2452 5.5853 9.2317 5.5656 9.22989C4.25294 9.20468 2.84358 9.38479 2.32156 9.51267Z" fill="#333333"/>
</svg>
